<svg width="256" height="256" viewBox="0 0 256 256" fill="none" xmlns="http://www.w3.org/2000/svg">
  <rect width="256" height="256" rx="64" fill="#0B0B0B"/>
  <circle cx="128" cy="128" r="76" stroke="#2DB8B6" stroke-width="14" stroke-linecap="round" stroke-dasharray="330 120"/>
  <path d="M170 180C157.5 194.333 140.667 201.5 119.5 201.5C97.1667 201.5 78.8333 194.333 64.5 180C50.1667 165.667 43 147.667 43 126C43 104.333 50.1667 86.3333 64.5 72C78.8333 57.6667 97.1667 50.5 119.5 50.5C140.667 50.5 157.5 57.6667 170 72" stroke="#E0B04A" stroke-width="12" stroke-linecap="round"/>
  <path d="M163 76L192 76" stroke="#2DB8B6" stroke-width="8" stroke-linecap="round"/>
  <path d="M181 58L181 94" stroke="#2DB8B6" stroke-width="8" stroke-linecap="round"/>
  <path d="M176 113H130.5C122.167 113 115.5 119.667 115.5 128C115.5 136.333 122.167 143 130.5 143H161C169 143 175.5 149.5 175.5 157.5C175.5 165.5 169 172 161 172H109" stroke="#E0B04A" stroke-width="11" stroke-linecap="round" stroke-linejoin="round"/>
  <path d="M143 96V189" stroke="#E0B04A" stroke-width="11" stroke-linecap="round"/>
  <circle cx="58" cy="116" r="6" fill="#2DB8B6"/>
  <circle cx="198" cy="128" r="6" fill="#2DB8B6"/>
  <circle cx="82" cy="194" r="5" fill="#E0B04A"/>
</svg>
