<svg width="1140" height="240" viewBox="0 0 1140 240" fill="none" xmlns="http://www.w3.org/2000/svg">
  <rect width="1140" height="240" rx="24" fill="white"/>
  <g>
    <path d="M45 122C45 76.7127 80.8172 40 125 40C169.183 40 205 76.7127 205 122C205 167.287 169.183 204 125 204C80.8172 204 45 167.287 45 122Z" fill="#0B0B0B"/>
    <circle cx="125" cy="122" r="56" stroke="#2DB8B6" stroke-width="11" stroke-linecap="round" stroke-dasharray="236 90"/>
    <path d="M156 156C147.167 166.833 135.167 172.25 120 172.25C103.833 172.25 90.5833 167.083 80.25 156.75C69.9167 146.417 64.75 133.167 64.75 117C64.75 100.833 69.9167 87.5833 80.25 77.25C90.5833 66.9167 103.833 61.75 120 61.75C135.167 61.75 147.167 67.1667 156 78" stroke="#E0B04A" stroke-width="8.5" stroke-linecap="round"/>
    <path d="M155 70H178" stroke="#2DB8B6" stroke-width="6" stroke-linecap="round"/>
    <path d="M166.5 58.5V81.5" stroke="#2DB8B6" stroke-width="6" stroke-linecap="round"/>
    <path d="M161.5 108.5H132.5C127.253 108.5 123 112.753 123 118C123 123.247 127.253 127.5 132.5 127.5H154C159.247 127.5 163.5 131.753 163.5 137C163.5 142.247 159.247 146.5 154 146.5H120.5" stroke="#E0B04A" stroke-width="8" stroke-linecap="round" stroke-linejoin="round"/>
    <path d="M139.5 96V161" stroke="#E0B04A" stroke-width="8" stroke-linecap="round"/>
  </g>
  <g fill="#0B0B0B">
    <path d="M290 152C290 119.667 315.333 94 349.5 94C383.667 94 409 119.667 409 152C409 184.333 383.667 210 349.5 210C315.333 210 290 184.333 290 152ZM378.5 152C378.5 136 366.667 124 349.5 124C332.333 124 320.5 136 320.5 152C320.5 168 332.333 180 349.5 180C366.667 180 378.5 168 378.5 152Z"/>
    <path d="M431 207V94H461V108.5C469 97.8333 481.167 92.5 497.5 92.5C527.5 92.5 549 116.833 549 151.5C549 186.167 527.5 210.5 497.5 210.5C482.167 210.5 470.333 205.667 462 196V207H431ZM518.5 151.5C518.5 135.167 507.5 122.5 490 122.5C472.5 122.5 461.5 135.167 461.5 151.5C461.5 167.833 472.5 180.5 490 180.5C507.5 180.5 518.5 167.833 518.5 151.5Z"/>
    <path d="M567 152C567 117.5 591.333 92.5 625.5 92.5C642.5 92.5 656.833 98 666.5 108L649.5 127.5C643.833 122.5 636.667 120 628 120C610.833 120 598.5 132.333 598.5 152C598.5 171.667 610.833 183 628 183C636.667 183 644 180.167 650.5 174L667.5 194C656.833 204.667 642.167 210 624.5 210C591.167 210 567 186 567 152Z"/>
    <path d="M695 207V94H725V115C732.333 100.667 744.833 93.5 762.5 93.5H766.5V122H759C737.333 122 725 134 725 156.5V207H695Z"/>
    <path d="M782 152C782 117 807.167 92.5 842.5 92.5C877.833 92.5 903 117 903 152C903 187 877.833 211.5 842.5 211.5C807.167 211.5 782 187 782 152ZM872 152C872 134.333 859.833 122.5 842.5 122.5C825.167 122.5 813 134.333 813 152C813 169.667 825.167 181.5 842.5 181.5C859.833 181.5 872 169.667 872 152Z"/>
    <path d="M924 207V178L979.5 123H927V94H1018V122.5L963 178H1019V207H924Z"/>
  </g>
  <g fill="#E0B04A">
    <path d="M1035 207V182L1072 149C1079.33 142.333 1084.17 136.667 1086.5 132C1089.17 127.333 1090.5 122.833 1090.5 118.5C1090.5 106.833 1082.5 100 1066.5 100C1053.83 100 1043.33 104.833 1035 114.5L1014 95C1026.67 79.1667 1045.5 71.25 1070.5 71.25C1088.5 71.25 1103.17 75.75 1114.5 84.75C1126.17 93.75 1132 105.667 1132 120.5C1132 129.833 1129.67 138.5 1125 146.5C1120.67 154.5 1112.33 164 1100 175L1078 194.5H1136V207H1035Z"/>
    <path d="M1018 53H1131" stroke="#E0B04A" stroke-width="6" stroke-linecap="round"/>
  </g>
  <text x="288" y="62" fill="#737373" font-family="Manrope, Arial, sans-serif" font-size="26" font-weight="500" letter-spacing="7">JUST CODE IT !</text>
</svg>
